<svg id="analytics" xmlns="http://www.w3.org/2000/svg" width="104.802" height="123.132" viewBox="0 0 104.802 123.132">
  <g id="Group_105" data-name="Group 105" transform="translate(47.198 59.517)">
    <g id="Group_104" data-name="Group 104">
      <rect id="Rectangle_41" data-name="Rectangle 41" width="20.521" height="4.104" fill="#002c2d"/>
    </g>
  </g>
  <g id="Group_107" data-name="Group 107" transform="translate(47.198 67.725)">
    <g id="Group_106" data-name="Group 106">
      <rect id="Rectangle_42" data-name="Rectangle 42" width="12.313" height="4.104" fill="#002c2d"/>
    </g>
  </g>
  <g id="Group_109" data-name="Group 109" transform="translate(0 0)">
    <g id="Group_108" data-name="Group 108">
      <path id="Path_322" data-name="Path 322" d="M138.968,101.467q-.141-.152-.292-.293h0l-10.6-10.613V33.072c0-.045-.023-.084-.027-.129a1.9,1.9,0,0,0-.1-.525,1.987,1.987,0,0,0-.074-.193,2.051,2.051,0,0,0-.41-.6L96.457.607A1.971,1.971,0,0,0,95.841.2a1.809,1.809,0,0,0-.176-.064,1.979,1.979,0,0,0-.556-.111C95.069.023,95.034,0,95,0H54.2a2.052,2.052,0,0,0-2.052,2.052V16.417H45.989a2.052,2.052,0,0,0-2.052,2.052v8.208H37.781a2.052,2.052,0,0,0-2.052,2.052v92.35a2.052,2.052,0,0,0,2.052,2.052h69.771a2.052,2.052,0,0,0,2.052-2.052v-8.208h6.156a2.052,2.052,0,0,0,2.052-2.052v-8.208h5.8l6.8,6.8a5.836,5.836,0,0,0,8.548-7.949ZM97.058,7.012l12,12,12,12H97.058V7.012ZM105.5,119.027H39.833V30.788h4.1v80.032a2.052,2.052,0,0,0,2.052,2.052H105.5Zm8.208-10.26H48.042V20.527h4.1v80.032a2.052,2.052,0,0,0,2.052,2.052h59.511ZM56.25,98.507V4.11h36.7V33.072a2.052,2.052,0,0,0,2.052,2.052h28.963V86.457L116,78.49a26.552,26.552,0,1,0-7.862,8.645l11.371,11.371H56.25Zm59.1-33.039A22.368,22.368,0,1,1,92.982,43.1,22.395,22.395,0,0,1,115.35,65.468Zm20.425,41.047a1.733,1.733,0,0,1-1.229.508,1.714,1.714,0,0,1-1.228-.509l-21.736-21.74,2.45-2.45,9.936,9.936v.09h.09l11.715,11.715A1.732,1.732,0,0,1,135.776,106.515Z" transform="translate(-35.729 0)" fill="#00a990"/>
    </g>
  </g>
  <g id="Group_111" data-name="Group 111" transform="translate(37.758 45.973)">
    <g id="Group_110" data-name="Group 110">
      <path id="Path_323" data-name="Path 323" d="M202.424,179.224a19.495,19.495,0,1,0,19.495,19.495A19.495,19.495,0,0,0,202.424,179.224Zm0,34.886a15.391,15.391,0,1,1,15.391-15.391A15.391,15.391,0,0,1,202.424,214.11Z" transform="translate(-182.929 -179.224)" fill="#00a990"/>
    </g>
  </g>
</svg>
