<svg xmlns="http://www.w3.org/2000/svg" xmlns:xlink="http://www.w3.org/1999/xlink" width="1161.277" height="831.766" viewBox="0 0 1161.277 831.766">
  <defs>
    <linearGradient id="linear-gradient" x1="0.5" y1="1" x2="0.5" gradientUnits="objectBoundingBox">
      <stop offset="0" stop-color="gray" stop-opacity="0.251"/>
      <stop offset="0.54" stop-color="gray" stop-opacity="0.122"/>
      <stop offset="1" stop-color="gray" stop-opacity="0.102"/>
    </linearGradient>
    <linearGradient id="linear-gradient-2" y1="1" y2="0" xlink:href="#linear-gradient"/>
  </defs>
  <g id="Group_704" data-name="Group 704" transform="translate(149.516 -4175.579)">
    <path id="Path_476" data-name="Path 476" d="M802.093-5.307,1461.2,0c129.235,0,234,104.765,234,234V341.35c0,129.235-104.765,234-234,234l-812.655-7.6c8.372-42.066.254,4.524,18.635-69.547l63.566-237.231C782.96,35.189,748.9,202.474,802.093-5.307Z" transform="matrix(0.966, -0.259, 0.259, 0.966, -774.588, 4619.455)" fill="#00a990" opacity="0.14"/>
    <g id="undraw_finance_0bdk" transform="translate(72.381 4272.768)">
      <path id="Path_242" data-name="Path 242" d="M322.348,531.376c-48.313-16.693-103.553-30.824-148.691-6.835-5.721,3.041-11.358,6.868-14.44,12.564-8.141,14.985,4.8,34.417-1.508,50.256s-30.045,23.813-28.1,40.733c.511,4.422,2.907,8.426,5.729,11.877,17.682,21.6,50.1,23.788,77.495,18.427s54.193-16.476,82.085-15.077c26.8,1.382,51.462,14.239,76.021,25.061,41.4,18.293,89.757,31.418,131.126,13.033,18.955-8.426,34.626-22.774,52.769-32.792a129.878,129.878,0,0,1,80.158-14.708c18.427,2.6,36.017,9.13,54.05,13.636,40.959,10.227,83.71,9.892,125.916,9.49,7.857-.075,15.839-.167,23.369-2.412,11.148-3.35,20.345-11.065,29.2-18.611,11.634-9.909,23.888-20.8,27.641-35.615,4.431-17.59-4.741-36.285-18.343-48.237s-30.991-18.486-47.961-24.785c-4.188-1.541-8.661-3.108-12.949-1.943a17.658,17.658,0,0,0-7.287,4.665c-12.045,11.592-22.222,31.2-38.647,28.051-5.863-1.122-10.663-5.2-15.3-8.971-24.776-20.1-58.1-35.623-88.007-24.517-21.87,8.125-37.307,28.989-59.47,36.352-15.764,5.243-32.893,2.973-49.477,4-24.123,1.474-47.6,10-71.757,9.481-61.6-1.323-112.917-60.223-174.263-54.611-4.808.436-10.051,1.541-13,5.344" transform="translate(-124.058 -229.798)" fill="#00a990" opacity="0.5"/>
      <path id="Path_243" data-name="Path 243" d="M264.314,467.442s-51.186,30.9,43.2,78.491c0,0,20.8-38.613-2.195-70.1a30.991,30.991,0,0,0-40.2-8.811Z" transform="translate(-143.702 -221.892)" fill="#00a990"/>
      <path id="Path_244" data-name="Path 244" d="M267.73,467.52s43.823,33.5,42.6,79.112" transform="translate(-146.507 -222.614)" fill="none" stroke="#535461" stroke-miterlimit="10" stroke-width="1"/>
      <path id="Path_245" data-name="Path 245" d="M1012.949,427.088c10.37,37.918-33.864,145.943-33.864,145.943S886.01,502.564,875.633,464.646A71.2,71.2,0,1,1,1012.94,427.08Z" transform="translate(-244.746 -207.277)" fill="#089681"/>
      <path id="Path_247" data-name="Path 247" d="M936.21,378.27s57.937,87.462,53.606,195.814" transform="translate(-255.068 -208.12)" fill="none" stroke="#535461" stroke-miterlimit="10" stroke-width="1"/>
      <path id="Path_248" data-name="Path 248" d="M1048.791,519.616s-52.534-28.579-45.884,76.917c0,0,43.823-1.566,59.378-37.315a30.991,30.991,0,0,0-12.723-39.158Z" transform="translate(-265.805 -230.501)" fill="#00a990"/>
      <path id="Path_249" data-name="Path 249" d="M1049.766,520.52s-6.785,54.762-46.746,76.732" transform="translate(-265.918 -231.221)" fill="none" stroke="#535461" stroke-miterlimit="10" stroke-width="1"/>
      <path id="Path_250" data-name="Path 250" d="M136.871,505.406S85.66,536.3,180.058,583.864c0,0,20.8-38.613-2.195-70.1a30.991,30.991,0,0,0-40.2-8.812Z" transform="translate(-123.003 -228.051)" fill="#00a990"/>
      <path id="Path_251" data-name="Path 251" d="M140.26,505.49s43.823,33.5,42.6,79.111" transform="translate(-125.806 -228.781)" fill="none" stroke="#535461" stroke-miterlimit="10" stroke-width="1"/>
      <path id="Path_252" data-name="Path 252" d="M793.244,501.711H739.428A17.941,17.941,0,0,0,741.3,493.7V248.647a18.017,18.017,0,0,0-18.017-18.017H306.724a18.017,18.017,0,0,0-18.017,18.017V493.7a17.939,17.939,0,0,0,1.876,8.016H234.866a4.766,4.766,0,0,0-4.766,4.791v3.844a26.652,26.652,0,0,0,26.652,26.652h514.6a26.653,26.653,0,0,0,26.653-26.652V506.51a4.766,4.766,0,0,0-4.766-4.8Zm-331.6,15.244-4.64-5.235H571.573l-5.109,5.243Z" transform="translate(-140.396 -184.143)" fill="url(#linear-gradient)"/>
      <rect id="Rectangle_17" data-name="Rectangle 17" width="442.353" height="274.724" rx="23.26" transform="translate(153.412 49.954)" fill="#535461"/>
      <rect id="Rectangle_18" data-name="Rectangle 18" width="422.796" height="224.435" transform="translate(162.726 90)" fill="#fff"/>
      <ellipse id="Ellipse_48" data-name="Ellipse 48" cx="3.727" cy="3.727" rx="3.727" ry="3.727" transform="translate(370.401 66.715)" fill="#fff"/>
      <path id="Path_253" data-name="Path 253" d="M581.045,551.08l-14.524,14.9h-102.4l-13.125-14.9H242.437a4.657,4.657,0,0,0-4.657,4.657v3.752a26.049,26.049,0,0,0,26.049,26.049H766.775a26.05,26.05,0,0,0,26.049-26.049v-3.752a4.657,4.657,0,0,0-4.657-4.657Z" transform="translate(-141.643 -236.184)" fill="#535461"/>
      <path id="Path_254" data-name="Path 254" d="M258.77,124.19V315.1H574.461" transform="translate(-42.027 -20.219)" fill="none" stroke="#535461" stroke-miterlimit="10" stroke-width="2"/>
      <rect id="Rectangle_19" data-name="Rectangle 19" width="32.591" height="50.29" transform="translate(244.677 237.141)" fill="#00a990" opacity="0.3"/>
      <rect id="Rectangle_20" data-name="Rectangle 20" width="32.591" height="94.992" transform="translate(300.553 192.439)" fill="#00a990" opacity="0.69"/>
      <rect id="Rectangle_21" data-name="Rectangle 21" width="32.591" height="67.98" transform="translate(356.43 219.443)" fill="#00a990" opacity="0.3"/>
      <rect id="Rectangle_22" data-name="Rectangle 22" width="32.591" height="109.893" transform="translate(412.306 177.538)" fill="#00a990" opacity="0.69"/>
      <rect id="Rectangle_23" data-name="Rectangle 23" width="32.591" height="149.001" transform="translate(468.182 138.422)" fill="#089681"/>
      <path id="Path_255" data-name="Path 255" d="M311.02,230.058l56.806-51.219L423.7,227.261,478.649,168.6l55.876-23.285" transform="translate(-50.512 -23.649)" fill="none" stroke="#535461" stroke-miterlimit="10" stroke-width="2"/>
      <ellipse id="Ellipse_49" data-name="Ellipse 49" cx="6.517" cy="6.517" rx="6.517" ry="6.517" transform="translate(253.991 199.893)" fill="#00a990"/>
      <ellipse id="Ellipse_50" data-name="Ellipse 50" cx="6.517" cy="6.517" rx="6.517" ry="6.517" transform="translate(365.744 196.166)" fill="#00a990"/>
      <ellipse id="Ellipse_51" data-name="Ellipse 51" cx="6.517" cy="6.517" rx="6.517" ry="6.517" transform="translate(422.55 138.43)" fill="#00a990"/>
      <ellipse id="Ellipse_52" data-name="Ellipse 52" cx="6.517" cy="6.517" rx="6.517" ry="6.517" transform="translate(310.797 147.736)" fill="#00a990"/>
      <ellipse id="Ellipse_53" data-name="Ellipse 53" cx="6.517" cy="6.517" rx="6.517" ry="6.517" transform="translate(477.496 115.145)" fill="#00a990"/>
      <path id="Path_256" data-name="Path 256" d="M953.318,498.184c-3.434-1.131-8.527-2.437-12.564-1.977-3.845-1.4-12.882-5.026-19.055-10.487a137.459,137.459,0,0,0-.41-16.1c-3.158-35.908,3.945-59.578,3.945-59.578S930.812,391.985,930.2,377c.36.678.561,1.08.561,1.08.486-12.924,4.892-26.3,8.192-34.635a2.782,2.782,0,0,0,.369-.134l3.685-8.745a7.577,7.577,0,0,0,.7-1.617l.595-1.382-.176-.075c.059-.226.117-.469.176-.712h0c2.353-9.959,4.188-33.579,4.188-33.579,6.316-24.86-8.677-40.2-8.677-40.2L914.362,235.1a3.236,3.236,0,0,1,.251.9l-.209-.184c-.36-1.03-.754-2.262-1.139-3.669a21.511,21.511,0,0,0,8.217-12.329,38.594,38.594,0,0,0,.377-9.214l-.419-10.562a33.5,33.5,0,0,0-.628-6.156c-1.918-8.376-10.5-14.239-19.122-14.624a69.9,69.9,0,0,0-8.209.435,55.22,55.22,0,0,1-6.7.142,1.206,1.206,0,0,1-.72-.193,1.057,1.057,0,0,1-.31-.729,3.635,3.635,0,0,1,.888-2.722,3.347,3.347,0,0,1,1.156-.662l-.611.142a3.347,3.347,0,0,1,1.005-.544,19.51,19.51,0,0,0-6.349,2.3,8.19,8.19,0,0,0-1.482,1.248,6.475,6.475,0,0,0-2.145,3.987,7.421,7.421,0,0,1-2.261-3.35,3.352,3.352,0,0,1,0-1.625q-.226.276-.436.57v-.176a16.934,16.934,0,0,0-3.35,6.818,2.654,2.654,0,0,1-.6-1.96q-.189.591-.352,1.181a2.74,2.74,0,0,1,0-.787,26.981,26.981,0,0,0-1.315,9.364c0,3.166,1.407,8.1,4.8,9.214.176.059.352.1.536.142a21.3,21.3,0,0,0,14.365,32.532q.084.578.159,1.215h.134c.092.838.167,1.759.218,2.7a18.158,18.158,0,0,1-2.8,2.245,23.068,23.068,0,0,1-9.314,3.082,27.724,27.724,0,0,0-11.2,3.35c-4.062,2.27-8.543,5.578-9.951,9.6-2.345,6.7-15.261,17.129-23.922,18.427l-3.082-.176-.226-.067v.059l-.754-.042h-.243v.042l-.779-.042s-.075.36-.184,1c-4.356-1.5-13.611-5.654-25.656-16.584-13.4-12.17-31.536-9.775-38.53-8.242a1.2,1.2,0,0,0-.318,2.22c2.823,1.55,7.2,3.8,9.214,4.054,0,0-4.188,4.381.268,6.7a3.233,3.233,0,0,0,3.35-.327c2.161-1.583,8.167,2,16.869,3.87,0,0,24.558,25.413,36.754,29.316a17.606,17.606,0,0,0,.93,1.617l.754-.059v.059h.318l.092.838s18.963-1,25.128-7.882a9.88,9.88,0,0,0,1.2-1.281L851.432,373.2h.059l-.059.787h4.85a182.818,182.818,0,0,1-1.315,30.539v54.059s-.251,4.758,9.633,11.726A369.487,369.487,0,0,1,894.518,493.5l1.2,1.039c-1.818,16.543-5.621,47.375-8.795,48.522l1.96.343c-3.35,4.247-12.866,15.914-15.764,16.224-3.551.394-5.922,5.922,0,7.1a66.346,66.346,0,0,0,35.179-3.468,5.369,5.369,0,0,0,3.35-5.712l-1.147-8.711a1.225,1.225,0,0,1,.5.528c.787,2.371,0-3.158,0-3.158a246.891,246.891,0,0,0,7.63-31.829l11.727,10.135s.234-.293.645-.838c2.873,6.517,8,19.851,6.851,29.617-1.575,13.4,13.4,1.575,11.835-6.315-1.273-6.382,4.423-33.437,6.642-43.555a4.5,4.5,0,0,0-3.015-5.243Z" transform="translate(-226.862 -175.13)" fill="url(#linear-gradient-2)"/>
      <path id="Path_257" data-name="Path 257" d="M831.151,294.4s-11.173-1.926-27.741-16.953C790.3,265.562,772.62,267.9,765.8,269.4a1.164,1.164,0,0,0-.31,2.161c2.756,1.508,7.028,3.711,9.029,3.962,0,0-4.129,4.272.26,6.558a3.158,3.158,0,0,0,3.3-.318c2.111-1.541,7.974,1.96,16.476,3.778,0,0,33.135,34.291,40.841,28.478Z" transform="translate(-227.244 -190.237)" fill="#fec3be"/>
      <path id="Path_258" data-name="Path 258" d="M912.11,240.618s3.083,13.1,0,22.347l13.871,1.926,12.33-6.165v-8.091s-5.78-12.329-4.238-26.585Z" transform="translate(-251.154 -183.075)" fill="#fec3be"/>
      <path id="Path_259" data-name="Path 259" d="M959,578.36s10.051,19.65,8.476,32.75,13.1,1.541,11.559-6.165c-1.248-6.232,4.314-32.666,6.483-42.5a4.389,4.389,0,0,0-2.915-5.118c-4.632-1.524-12.388-3.392-16.283-.536C960.566,561.021,959,578.36,959,578.36Z" transform="translate(-258.769 -236.87)" fill="#8b416f"/>
      <path id="Path_260" data-name="Path 260" d="M909.6,608.366s-13.1,16.953-16.568,17.338-5.779,5.779,0,6.935a64.779,64.779,0,0,0,34.341-3.35,5.244,5.244,0,0,0,3.292-5.578l-2.211-16.5Z" transform="translate(-247.483 -245.3)" fill="#8b416f"/>
      <path id="Path_261" data-name="Path 261" d="M885.265,393.78,872.7,395.455a183.887,183.887,0,0,1-.151,44.167v52.769s-.243,4.649,9.406,11.408a360.738,360.738,0,0,1,29.216,22.615L946.133,556.7S960,539.749,958.077,529.731c0,0-23.118-7.321-26.2-19.265-1.767-6.835-10.729-12.564-18.067-16.166a22.464,22.464,0,0,1-12.02-25.5,19.659,19.659,0,0,1,1.968-4.95c6.165-10.788,15.026-35.062,15.026-35.062l-16.953-32.315Z" transform="translate(-244.729 -210.639)" fill="#4d4981"/>
      <path id="Path_262" data-name="Path 262" d="M885.265,393.78,872.7,395.455a183.887,183.887,0,0,1-.151,44.167v52.769s-.243,4.649,9.406,11.408a360.738,360.738,0,0,1,29.216,22.615L946.133,556.7S960,539.749,958.077,529.731c0,0-23.118-7.321-26.2-19.265-1.767-6.835-10.729-12.564-18.067-16.166a22.464,22.464,0,0,1-12.02-25.5,19.659,19.659,0,0,1,1.968-4.95c6.165-10.788,15.026-35.062,15.026-35.062l-16.953-32.315Z" transform="translate(-244.729 -210.639)" opacity="0.05"/>
      <path id="Path_263" data-name="Path 263" d="M907.426,574.914s22.732,3.853,23.5,6.165,0-3.082,0-3.082,13.1-39.685,10.051-74.739,3.853-58.18,3.853-58.18,8.091-26.2,3.468-41.227-53.171-8.477-53.171-8.477S912.083,435.06,911.7,453.94c0,0,1.927,57.024,5.394,63.574C917.058,517.48,911.664,573.348,907.426,574.914Z" transform="translate(-248.396 -210.667)" fill="#4d4981"/>
      <path id="Path_264" data-name="Path 264" d="M906.357,255.79s2.312,14.239,25.43,8.091L916.409,381s-44.694,1.541-44.309-3.853l9.214-70.886Z" transform="translate(-244.656 -188.229)" fill="#fff"/>
      <path id="Path_265" data-name="Path 265" d="M902.253,254.87a18.78,18.78,0,0,1-11.132,5.285,27.079,27.079,0,0,0-10.939,3.25c-3.962,2.22-8.376,5.444-9.716,9.373-2.7,7.706-19.65,20.421-27.356,17.724l2.7,23.118s21.962-1.156,25.815-9.632l-6.542,82.5h5.779s3.082-22.347,5.394-26.971,6.935-30.053,7.321-36.218,6.165-41.612,11.174-47.743l7.539-18.3Z" transform="translate(-239.948 -188.08)" opacity="0.1"/>
      <path id="Path_266" data-name="Path 266" d="M902.105,256.25a23.845,23.845,0,0,1-11.9,4.9,27.08,27.08,0,0,0-10.931,3.267c-3.962,2.22-8.376,5.444-9.716,9.373-2.7,7.706-19.65,20.421-27.356,17.724l2.7,23.118s21.962-1.156,25.815-9.632l-6.55,82.445h5.779s3.083-22.347,5.394-26.971,6.935-30.053,7.321-36.218,6.165-41.612,11.174-47.743l8.276-17.958Z" transform="translate(-239.8 -188.304)" opacity="0.1"/>
      <path id="Path_267" data-name="Path 267" d="M902.1,255.33a23.846,23.846,0,0,1-11.9,4.9,27.081,27.081,0,0,0-10.939,3.25c-3.962,2.22-8.376,5.444-9.716,9.373-2.7,7.706-19.65,20.421-27.356,17.724l2.7,23.118s21.962-1.156,25.815-9.632l-6.542,82.5h5.779s3.082-22.347,5.394-26.971,6.935-30.053,7.321-36.218,6.165-41.612,11.173-47.743l8.284-17.916Z" transform="translate(-239.799 -188.155)" fill="#00a990"/>
      <path id="Path_268" data-name="Path 268" d="M933.108,235.64c-.5-3.652.5-5.93.963-10.21L912.11,242s.528,2.236.93,5.511a20.941,20.941,0,0,0,3.35.268C924.012,247.777,929.5,241.822,933.108,235.64Z" transform="translate(-251.154 -183.299)" opacity="0.1"/>
      <ellipse id="Ellipse_54" data-name="Ellipse 54" cx="20.806" cy="20.806" rx="20.806" ry="20.806" transform="translate(644.388 21.719)" fill="#fec3be"/>
      <path id="Path_269" data-name="Path 269" d="M890.056,198.3A26.335,26.335,0,0,1,891.731,188a2.572,2.572,0,0,0,.436,3.35,16.485,16.485,0,0,1,5.227-9.264c-1.483.243-2.245,2.077-1.876,3.535a8.044,8.044,0,0,0,2.571,3.618,6.465,6.465,0,0,1,3.175-5.47,19.044,19.044,0,0,1,6.2-2.245,3.593,3.593,0,0,0-2.379,3.685,1.031,1.031,0,0,0,.31.712,1.182,1.182,0,0,0,.7.184,53.927,53.927,0,0,0,6.508-.142,68.263,68.263,0,0,1,8.016-.427c8.376.352,16.794,6.073,18.67,14.239a32.768,32.768,0,0,1,.611,6.014l.41,10.311a37.666,37.666,0,0,1-.368,9.013,19.1,19.1,0,0,1-9.808,12.966c-3.024-4.381-3.292-10.009-4.339-15.228a7.706,7.706,0,0,0-1.307-3.35,2.94,2.94,0,0,0-3.225-1.089c-1.131.452-1.617,2.178-.678,2.948-.838.988-2.4.251-3.35-.628a17.99,17.99,0,0,1-5.218-9.323c-.377-1.792-.754-4-2.513-4.615a4.675,4.675,0,0,0-1.86-.126c-3.669.251-9.406,1.767-12.958.6C891.43,206.214,890.056,201.389,890.056,198.3Z" transform="translate(-247.569 -176.169)" opacity="0.1"/>
      <path id="Path_270" data-name="Path 270" d="M890.516,197.839a26.324,26.324,0,0,1,1.675-10.294,2.571,2.571,0,0,0,.435,3.35,16.487,16.487,0,0,1,5.227-9.264c-1.483.243-2.245,2.077-1.876,3.535a8.04,8.04,0,0,0,2.571,3.618,6.464,6.464,0,0,1,3.175-5.47,19.048,19.048,0,0,1,6.2-2.245,3.593,3.593,0,0,0-2.379,3.685,1.03,1.03,0,0,0,.31.712,1.18,1.18,0,0,0,.7.184,53.93,53.93,0,0,0,6.508-.142,68.259,68.259,0,0,1,8.016-.427c8.376.352,16.794,6.073,18.67,14.239a32.735,32.735,0,0,1,.612,6.014l.411,10.311a37.7,37.7,0,0,1-.369,9.013,19.1,19.1,0,0,1-9.808,12.966c-3.024-4.381-3.292-10.009-4.339-15.228a7.708,7.708,0,0,0-1.306-3.35,2.94,2.94,0,0,0-3.225-1.089c-1.131.452-1.617,2.178-.678,2.948-.838.988-2.4.251-3.35-.628a17.992,17.992,0,0,1-5.218-9.323c-.377-1.792-.754-4-2.513-4.615a4.674,4.674,0,0,0-1.859-.126c-3.669.251-9.406,1.767-12.958.6C891.89,205.746,890.516,200.929,890.516,197.839Z" transform="translate(-247.644 -176.095)" fill="#784f69"/>
      <path id="Path_271" data-name="Path 271" d="M840.841,297.42s-3.082,14.239,2.7,23.118l3.275-.268-1.784-22.615Z" transform="translate(-239.447 -194.99)" opacity="0.1"/>
      <path id="Path_272" data-name="Path 272" d="M841.841,297.42s-3.082,14.239,2.7,23.118l3.275-.268-1.784-22.615Z" transform="translate(-239.609 -194.99)" fill="#089681"/>
      <path id="Path_273" data-name="Path 273" d="M935.666,251l24.852,21.384s14.641,15.026,8.477,39.3c0,0-2.7,35.447-5.779,36.988,0,0-10.788,21.577-11.559,42,0,0-14.449-29.09-21-11.366s-21.778,20.228-21.778,20.228L917.356,294.7S938.749,257.517,935.666,251Z" transform="translate(-250.629 -187.451)" opacity="0.1"/>
      <path id="Path_274" data-name="Path 274" d="M936.586,251l24.852,21.384s14.641,15.026,8.476,39.3c0,0-2.7,35.447-5.779,36.988,0,0-10.788,21.577-11.559,42,0,0-15.219-30.631-21.777-12.907s-21,21.778-21,21.778l8.477-104.792S939.669,257.517,936.586,251Z" transform="translate(-250.779 -187.451)" fill="#00a990"/>
      <path id="Path_275" data-name="Path 275" d="M952.1,358.683s6.165-4.238,16.182,7.321L943.624,410.7l-8.284-12.505S952.871,363.692,952.1,358.683Z" transform="translate(-254.926 -204.816)" fill="#fec3be"/>
      <path id="Path_276" data-name="Path 276" d="M948.22,360.55s13.636,15.311,18.955,12.857l4.925-11.467L953.614,354Z" transform="translate(-257.018 -204.179)" opacity="0.1"/>
      <path id="Path_277" data-name="Path 277" d="M948.22,359.63s13.636,15.311,18.955,12.857l4.925-11.467-18.486-7.941Z" transform="translate(-257.018 -204.029)" fill="#089681"/>
      <path id="Path_278" data-name="Path 278" d="M935.875,402.51s6.492,13.3,9.951,14.072l-5.026,5.779-7.321-13.871Z" transform="translate(-254.624 -212.057)" opacity="0.1"/>
      <path id="Path_279" data-name="Path 279" d="M935.412,403s6.491,13.3,9.951,14.072l-5.026,5.779L933,408.955Z" transform="translate(-254.546 -212.136)" fill="#4d4981"/>
      <path id="Path_280" data-name="Path 280" d="M950.072,304.78s.771,27.741-2.312,38.144" transform="translate(-256.944 -196.185)" opacity="0.1"/>
      <path id="Path_281" data-name="Path 281" d="M876,310.174s4.624-1.541,4.624-5.394" transform="translate(-245.29 -196.185)" opacity="0.1"/>
      <path id="Path_282" data-name="Path 282" d="M203.277,316.76s-21.962,45.431-7.538,99.2,9.842,118.1-4.54,134.016" transform="translate(-134.018 -198.131)" fill="none" stroke="#535461" stroke-miterlimit="10" stroke-width="2"/>
      <ellipse id="Ellipse_55" data-name="Ellipse 55" cx="6.056" cy="6.056" rx="6.056" ry="6.056" transform="translate(63.203 112.582)" fill="#ff7657"/>
      <path id="Path_283" data-name="Path 283" d="M194.79,350.838s22.766,4.1,28.822-4.188" transform="translate(-134.661 -202.985)" fill="none" stroke="#535461" stroke-miterlimit="10" stroke-width="2"/>
      <path id="Path_284" data-name="Path 284" d="M189.7,362.7S176,347.548,176.754,338.46" transform="translate(-131.728 -201.655)" fill="none" stroke="#535461" stroke-miterlimit="10" stroke-width="2"/>
      <path id="Path_285" data-name="Path 285" d="M190.82,396.48s12.455,3.283,23.821-20.94" transform="translate(-134.017 -207.677)" fill="none" stroke="#535461" stroke-miterlimit="10" stroke-width="2"/>
      <path id="Path_286" data-name="Path 286" d="M189.452,418.279s-30.991-19.943-27.214-32.809" transform="translate(-129.323 -209.289)" fill="none" stroke="#535461" stroke-miterlimit="10" stroke-width="2"/>
      <path id="Path_287" data-name="Path 287" d="M200.57,444.48s21.711-19.265,19.441-38.22" transform="translate(-135.6 -212.666)" fill="none" stroke="#535461" stroke-miterlimit="10" stroke-width="2"/>
      <path id="Path_288" data-name="Path 288" d="M198.19,464.064s-27.641-7.723-26.8-19.834" transform="translate(-130.858 -218.832)" fill="none" stroke="#535461" stroke-miterlimit="10" stroke-width="2"/>
      <path id="Path_289" data-name="Path 289" d="M205.69,481.966S223.1,465.833,225.374,456" transform="translate(-136.432 -220.743)" fill="none" stroke="#535461" stroke-miterlimit="10" stroke-width="2"/>
      <path id="Path_290" data-name="Path 290" d="M203.528,513.652S185.662,492.8,184.9,482.2" transform="translate(-133.055 -224.998)" fill="none" stroke="#535461" stroke-miterlimit="10" stroke-width="2"/>
      <path id="Path_291" data-name="Path 291" d="M207.14,534s19.994-22.213,21.5-32.809" transform="translate(-136.667 -228.082)" fill="none" stroke="#535461" stroke-miterlimit="10" stroke-width="2"/>
      <ellipse id="Ellipse_56" data-name="Ellipse 56" cx="6.056" cy="6.056" rx="6.056" ry="6.056" transform="translate(38.971 132.265)" fill="#ff7657"/>
      <ellipse id="Ellipse_57" data-name="Ellipse 57" cx="6.056" cy="6.056" rx="6.056" ry="6.056" transform="translate(32.161 219.342)" fill="#ff7657"/>
      <ellipse id="Ellipse_58" data-name="Ellipse 58" cx="6.056" cy="6.056" rx="6.056" ry="6.056" transform="translate(26.859 170.125)" fill="#ff7657"/>
      <ellipse id="Ellipse_59" data-name="Ellipse 59" cx="6.056" cy="6.056" rx="6.056" ry="6.056" transform="translate(82.895 137.567)" fill="#ff7657"/>
      <ellipse id="Ellipse_60" data-name="Ellipse 60" cx="6.056" cy="6.056" rx="6.056" ry="6.056" transform="translate(82.895 230.7)" fill="#ff7657"/>
      <ellipse id="Ellipse_61" data-name="Ellipse 61" cx="6.056" cy="6.056" rx="6.056" ry="6.056" transform="translate(73.053 161.799)" fill="#ff7657"/>
      <ellipse id="Ellipse_62" data-name="Ellipse 62" cx="6.056" cy="6.056" rx="6.056" ry="6.056" transform="translate(85.164 270.838)" fill="#ff7657"/>
      <ellipse id="Ellipse_63" data-name="Ellipse 63" cx="6.056" cy="6.056" rx="6.056" ry="6.056" transform="translate(44.273 254.932)" fill="#ff7657"/>
      <ellipse id="Ellipse_64" data-name="Ellipse 64" cx="6.056" cy="6.056" rx="6.056" ry="6.056" transform="translate(79.109 187.539)" fill="#ff7657"/>
    </g>
  </g>
</svg>
