<svg xmlns="http://www.w3.org/2000/svg" width="135.993" height="136.14" viewBox="0 0 135.993 136.14">
  <g id="Group_686" data-name="Group 686" transform="translate(-117.99 -241.449)">
    <path id="Path_447" data-name="Path 447" d="M161.294,367.8c-.336-.168-.627-.31-.913-.458A11.027,11.027,0,0,1,153.924,357q-.065-29.266-.012-58.532a11.306,11.306,0,0,1,11.629-11.645c2.87-.017,5.74,0,8.766,0v-1.77c0-11.479-.034-22.959.014-34.439a9.01,9.01,0,0,1,13.249-8.081,8.813,8.813,0,0,1,4.867,8.344q.012,17.007,0,34.014v1.933c.534,0,1.027-.008,1.52,0a78.664,78.664,0,0,1,9.467.259,10.972,10.972,0,0,1,9.4,11.086c.047,6.755.013,13.511.013,20.267v1.553l.233.11c.219-.421.449-.837.655-1.264q5.523-11.475,11.042-22.951c2.1-4.352,5.72-5.618,10.079-3.524q19.637,9.432,39.27,18.873c2.36,1.134,2.678,2.014,1.554,4.353q-13.855,28.821-27.718,57.639c-1.044,2.17-1.974,2.493-4.168,1.438q-14.852-7.143-29.7-14.295c-.461-.222-.93-.427-1.49-.682a11.772,11.772,0,0,1-7.127,8.073c1.18,3.532.573,6.59-2.64,8.692a6.25,6.25,0,0,1-7.328-.089c-2.741-1.852-3.521-4.533-2.769-7.8H174.03c.75,3.414-.108,6.247-3.187,8.052a6.25,6.25,0,0,1-7.317-.42C160.667,374.039,160.116,371.14,161.294,367.8Zm13.021-76.352a5.919,5.919,0,0,0-.613-.087c-2.832,0-5.665-.04-8.5,0a6.716,6.716,0,0,0-6.751,6.768q-.039,29.538,0,59.075a6.726,6.726,0,0,0,6.678,6.7c1.368.037,2.738.01,4.107.01q16,0,32.006,0a6.836,6.836,0,0,0,6.837-5.087c.241-.88.143-1.389-.769-1.746-1.05-.411-2.05-.955-3.066-1.451-4.167-2.037-5.45-5.708-3.446-9.894,2.341-4.89,4.7-9.77,7.034-14.665a3.931,3.931,0,0,0,.453-1.6c.025-10.484.043-20.967,0-31.45a6.465,6.465,0,0,0-5.735-6.531c-3.31-.28-6.663-.062-10.15-.062v11.15h-4.552V291.45h-9.084v11.158h-4.452Zm92.776,31.517L226.282,303.3c-.023.041-.123.2-.2.36q-10.64,22.115-21.271,44.236c-.855,1.782-.422,2.775,1.513,3.7q15.231,7.325,30.464,14.645c2.538,1.221,5.075,2.446,7.708,3.715Zm-79.182-36.215V268.873c0-6-.009-11.995,0-17.992a4.519,4.519,0,0,0-2.8-4.516c-3.064-1.343-6.261.938-6.266,4.461q-.026,17.5,0,34.992a7.822,7.822,0,0,0,.108.93Zm83.1,28.055c-.412-.213-.658-.347-.91-.468q-14.137-6.809-28.276-13.613c-3.184-1.532-6.364-3.075-9.57-4.562a2.159,2.159,0,0,0-3.015.963,2.245,2.245,0,0,0,1.086,3.1c.163.092.339.163.509.244q18.533,8.918,37.067,17.834c.368.177.751.322,1.186.506ZM169.762,370.738a2.258,2.258,0,1,0-2.241,2.239A2.281,2.281,0,0,0,169.762,370.738Zm29.495,2.238a2.26,2.26,0,1,0-2.273-2.206A2.285,2.285,0,0,0,199.257,372.975Z" transform="translate(-22.318 0)" fill="#00a990"/>
    <path id="Path_448" data-name="Path 448" d="M354.311,254.608c3.362,2.236,6.6,4.415,9.882,6.53a1.437,1.437,0,0,0,1.218-.156c1.522-.947,2.986-1.985,4.491-2.96a2.31,2.31,0,0,1,3.411.331q2.033,1.973,4.006,4.007c1.262,1.3,1.293,2.434.044,3.7-2.85,2.893-5.7,5.785-8.618,8.611a6.537,6.537,0,0,1-8.33.944q-18.741-11.4-37.436-22.872c-1.467-.9-1.878-2.292-.906-3.446,2.229-2.645,4.787-4.8,8.424-5.271a11.631,11.631,0,0,1,7.594,1.615c1.341.786,2.67,2.13,4.041,2.177s2.792-1.2,4.184-1.892c2.617-1.3,5.244-2.585,7.839-3.931a2.585,2.585,0,0,1,3.329.493c3.384,3.233,3.409,3.322.624,7.051C356.873,251.2,355.632,252.846,354.311,254.608Zm18.394,9.64c-1.478-1.654-1.479-1.654-3.123-.566-1.022.676-2.082,1.3-3.055,2.043a2.829,2.829,0,0,1-3.734.013c-4.084-2.8-8.229-5.5-12.344-8.256-1.99-1.331-2.16-2.368-.726-4.3q2.122-2.864,4.259-5.716c-3.573,1.5-6.988,3.157-10.356,4.9a3.1,3.1,0,0,1-3.436-.15c-1.582-1.023-3.2-2-4.85-2.907a6.368,6.368,0,0,0-7.723.963q7.862,4.8,15.695,9.586,9.47,5.789,18.932,11.592c1.1.678,2.211,1.042,3.23.051C367.9,269.142,370.26,266.71,372.7,264.248Z" transform="translate(-126.528 -0.096)" fill="#00a990"/>
    <path id="Path_449" data-name="Path 449" d="M267.879,321.426v-4.47a8.227,8.227,0,0,0,5.223-2.512,15.784,15.784,0,0,1,21.173-.044c.424.375.812.791,1.241,1.161a2.491,2.491,0,0,0,3.466.094c4.141-3.15,7.316-2.974,10.964.776,4.332,4.453,8.85,8.627,14.551,11.327a43.638,43.638,0,0,0,12.819,3.823c.549.075,1.108.072,1.966.123l-3.254-7.876,3.917-1.988a67.2,67.2,0,0,1,7.043,25.78l-4.346.263c-.493-3.086-.911-6.019-1.441-8.933-.462-2.538-.52-2.5-3.041-2.751a45.178,45.178,0,0,1-27.168-12.37c-1.653-1.55-3.213-3.2-4.837-4.779-1.366-1.331-2.506-1.36-3.984-.153-3.37,2.751-7.042,2.606-10.163-.4-4.921-4.743-11.306-4.86-16.356-.258A11.288,11.288,0,0,1,267.879,321.426Z" transform="translate(-93.169 -42.825)" fill="#00a990"/>
    <path id="Path_450" data-name="Path 450" d="M128.738,359.146l-3.5,1.753c-13.041-23.3-9.869-63.024,20.929-85.124l2.4,3.309C122.727,301.065,116.186,327.6,128.738,359.146Z" transform="translate(0 -21.337)" fill="#00a990"/>
    <path id="Path_451" data-name="Path 451" d="M303.925,589.08v-4.122l17.457-3.072,1.273,3.881A66.488,66.488,0,0,1,303.925,589.08Z" transform="translate(-115.575 -211.612)" fill="#00a990"/>
    <path id="Path_452" data-name="Path 452" d="M267.475,246.57l-.674-4.062a66.193,66.193,0,0,1,18.7-.631c-.151,1.49-.294,2.912-.412,4.078Z" transform="translate(-92.499 -0.023)" fill="#002c2d"/>
    <path id="Path_453" data-name="Path 453" d="M190.127,415.441h4.361v51.975h-4.361Z" transform="translate(-44.839 -108.151)" fill="#002c2d"/>
    <path id="Path_454" data-name="Path 454" d="M226.064,415.447h4.365v51.975h-4.365Z" transform="translate(-67.177 -108.155)" fill="#002c2d"/>
    <path id="Path_455" data-name="Path 455" d="M262.014,415.439h4.359v52.025h-4.359Z" transform="translate(-89.524 -108.15)" fill="#002c2d"/>
    <path id="Path_456" data-name="Path 456" d="M349.563,437.613a15.862,15.862,0,1,1-15.844,15.869A15.791,15.791,0,0,1,349.563,437.613Zm5.239,20.874-5.611,6.153c3.085.562,7.708-1.588,9.243-4.411Zm-16.209-7.794a11.247,11.247,0,0,0,2.493,10.2c.444-2.814.872-5.532,1.32-8.372Zm18.2,3.7,3.658,1.756c1.176-3.2-.079-8.146-2.4-9.962C357.651,448.8,357.24,451.476,356.792,454.391Zm-6.676-12.244a11.349,11.349,0,0,0-9.51,4.45l3.782,1.824Zm-4.4,18.592.575.284,4.315-4.556-3.973-1.922C346.311,456.716,346.013,458.728,345.715,460.739Zm2.872-10.28,4.026,1.9.8-6.229-.54-.232Z" transform="translate(-134.094 -121.933)" fill="#002c2d"/>
    <path id="Path_457" data-name="Path 457" d="M339.778,530.211l-1.974,4.077-20.4-9.808,1.954-4.082Z" transform="translate(-123.951 -173.391)" fill="#00a990"/>
  </g>
</svg>
