<svg xmlns="http://www.w3.org/2000/svg" width="136.054" height="136.14" viewBox="0 0 136.054 136.14">
  <g id="Group_685" data-name="Group 685" transform="translate(-106 -229.448)">
    <path id="Path_445" data-name="Path 445" d="M106,295.957c.1-.284.22-.563.3-.853a10.139,10.139,0,0,1,9.459-7.6,9.976,9.976,0,0,1,9.8,6.931,1.4,1.4,0,0,0,1.683,1.161c1.455-.057,2.914-.015,4.538-.015a44.513,44.513,0,0,1,3.212-14.192,43.023,43.023,0,0,1,7.629-12.077L131.879,258.65a12.625,12.625,0,0,1-10.79,1.713,12.716,12.716,0,0,1-.871-24.152,5.435,5.435,0,0,1,1.145-.322,1.827,1.827,0,0,1,2.187,1.289,1.867,1.867,0,0,1-1.043,2.432c-.391.2-.825.314-1.233.484a8.727,8.727,0,1,0,8.935,1.327c-1.664-1.38-1.971-2.307-1.122-3.395.878-1.125,2.074-1.017,3.686.335a12.688,12.688,0,0,1,2.832,16.223c-.2.34-.4.68-.614,1.047.2.219.364.422.548.607,3.309,3.326,6.619,6.65,10.028,10.072a42.667,42.667,0,0,1,26.467-11c0-1.819.065-3.536-.053-5.242-.024-.35-.683-.782-1.134-.959-4.053-1.585-6.471-4.5-6.8-8.833a10.022,10.022,0,1,1,13.454,8.649c-1.165.432-1.592.934-1.491,2.15.112,1.354.026,2.725.026,4.22a44.308,44.308,0,0,1,14.121,3.188,42.9,42.9,0,0,1,12.075,7.6l10.659-10.758a12.555,12.555,0,0,1-1.673-10.67,12.415,12.415,0,0,1,5.229-7.122,12.724,12.724,0,1,1-.279,21.112L205.49,269.326a42.444,42.444,0,0,1,10.785,26.245c1.82,0,3.542.064,5.252-.054.345-.024.781-.688.939-1.139a10.213,10.213,0,0,1,9.616-6.888,10.057,10.057,0,0,1,3.215,19.555,9.941,9.941,0,0,1-12.638-6.015c-.414-1.172-.923-1.6-2.142-1.495-1.355.114-2.727.026-4.235.026a42.466,42.466,0,0,1-10.764,26.166l10.736,10.694a12.107,12.107,0,0,1,7.55-2.165,18.162,18.162,0,0,1,3.763.695c1.478.419,2.08,1.509,1.664,2.669-.4,1.106-1.461,1.514-2.868,1.1-4.835-1.423-9.411.688-11.1,5.123a8.741,8.741,0,1,0,16.685,1.088c-.434-2.006-.1-2.958,1.148-3.276,1.4-.357,2.275.425,2.754,2.467A12.723,12.723,0,1,1,212.3,340.8c.235-.423.492-.834.667-1.13l-10.683-10.693a42.963,42.963,0,0,1-12.034,7.6,43.6,43.6,0,0,1-14.215,3.211c0,1.818-.046,3.575.045,5.325.015.3.577.683.961.823a9.844,9.844,0,0,1,6.833,7.785,9.981,9.981,0,0,1-7.4,11.566c-.29.077-.569.2-.853.3h-3.189c-.284-.1-.562-.219-.851-.3a10.073,10.073,0,0,1-.7-19.313c.429-.149,1.076-.54,1.095-.851.107-1.748.051-3.507.051-5.338a42.54,42.54,0,0,1-26.3-10.851L135.1,339.587c4.585,7.243,1.5,14.143-2.567,17.332A12.715,12.715,0,0,1,113.9,340.151a12.326,12.326,0,0,1,6.891-5.326,12.642,12.642,0,0,1,11.163,1.667l10.674-10.675a42.463,42.463,0,0,1-10.84-26.254c-1.611,0-3.069.065-4.517-.022-1.011-.061-1.434.273-1.763,1.26a9.978,9.978,0,0,1-9.754,6.8,10.152,10.152,0,0,1-9.424-7.477c-.092-.332-.219-.654-.331-.981Zm68.025,39.865a38.27,38.27,0,1,0-38.258-38.282A38.319,38.319,0,0,0,174.025,335.822Zm49.313-78.934a8.746,8.746,0,1,0-8.638-8.9A8.784,8.784,0,0,0,223.338,256.888ZM124.62,338.215A8.746,8.746,0,1,0,133.373,347,8.779,8.779,0,0,0,124.62,338.215Zm113.46-40.643a6.06,6.06,0,1,0-6.109,6.053A6.11,6.11,0,0,0,238.081,297.572ZM173.957,361.6a6.062,6.062,0,1,0-5.994-6.167A6.114,6.114,0,0,0,173.957,361.6Zm6.151-122.1a6.073,6.073,0,1,0-6.048,6.128A6.109,6.109,0,0,0,180.109,239.5Zm-64.054,51.978a6.074,6.074,0,1,0,6.055,6.116A6.1,6.1,0,0,0,116.055,291.478Z" transform="translate(0 0)" fill="#00a990"/>
    <path id="Path_446" data-name="Path 446" d="M232.492,389.422h7.259c0-1.061-.025-2.068.006-3.073a2,2,0,1,1,3.973-.013c.018.487,0,.975,0,1.462s0,.966,0,1.685c1.01,0,1.958,0,2.907,0,.576,0,1.155-.032,1.726.026a2,2,0,0,1,1.987,2.067,1.96,1.96,0,0,1-2.142,1.881c-5.625.021-11.249.011-16.874.012-.266,0-.532.008-.8-.009-1.281-.082-2.007-.718-2.012-1.984-.016-4.428-.162-8.868.1-13.282.336-5.708,5.517-10.668,11.236-11.136.821-.067,1.644-.109,2.563-.168-7.7-8.144-5-18.092.244-22.774a15.523,15.523,0,0,1,20.712,0c5.2,4.655,7.965,14.594.246,22.775.743.049,1.387.093,2.031.134a12.538,12.538,0,0,1,11.839,12.1c.122,4.027.057,8.06.039,12.09-.007,1.574-.7,2.245-2.3,2.25q-8.637.024-17.273,0c-1.389,0-2.228-.739-2.273-1.886-.047-1.192.823-2.034,2.252-2.079,1.406-.044,2.814-.01,4.371-.01,0-1.138-.021-2.144.005-3.15a2.025,2.025,0,0,1,1.982-2.2,2.06,2.06,0,0,1,1.992,2.21c.021.486,0,.974.005,1.461s0,.966,0,1.561h7.142a7.718,7.718,0,0,0,.109-.942c.009-2.835.034-5.669,0-8.5a8.625,8.625,0,0,0-8.968-8.952q-11.559-.053-23.119,0a8.627,8.627,0,0,0-8.968,8.952C232.462,383.058,232.492,386.191,232.492,389.422Zm20.675-45.3a11.408,11.408,0,1,0,11.281,11.651A11.428,11.428,0,0,0,253.167,344.119Z" transform="translate(-78.991 -71.401)" fill="#002c2d"/>
  </g>
</svg>
