<svg xmlns="http://www.w3.org/2000/svg" width="133.592" height="133.709" viewBox="0 0 133.592 133.709">
  <g id="Group_687" data-name="Group 687" transform="translate(-112.226 -235.684)">
    <path id="Path_458" data-name="Path 458" d="M181.243,334.92h-4.358v34.371c-33.111-.4-63.736-28.274-64.658-64.575h34.393v-4.272H112.332c-.1-30.553,25.723-63.31,64.466-64.761V270.1h4.359V235.786c33.211.373,63.727,28.38,64.661,64.573h-34.4v4.313h34.392c-.775,33.61-28.205,63.446-64.572,64.721ZM179.01,330.6a28.06,28.06,0,1,0-28.045-28.071A28.111,28.111,0,0,0,179.01,330.6Zm6.485,34.118c31.4-3.114,53.626-29.361,55.6-55.64a4.563,4.563,0,0,0-.519-.057c-9.62,0-19.241.012-28.861-.029-.945,0-1.044.468-1.239,1.174q-5.16,18.655-23.827,23.815c-.935.257-1.176.595-1.172,1.521.035,9.352.021,18.7.021,28.057Zm.049-124.353c-.019.35-.046.613-.046.875,0,9.487.012,18.975-.025,28.462,0,.924.341,1.158,1.165,1.385,12.382,3.408,20.344,11.3,23.775,23.691.28,1.012.639,1.319,1.691,1.313,9.261-.047,18.522-.027,27.783-.027h1.3C238.392,267.092,214.772,243.209,185.544,240.363ZM172.457,364.7a3.764,3.764,0,0,0,.083-.5c0-9.667-.006-19.334.026-29,0-.851-.39-.987-1.077-1.175-12.434-3.414-20.448-11.312-23.87-23.765-.3-1.081-.734-1.266-1.728-1.262-9.216.036-18.432.022-27.648.022h-1.328C119.2,336.669,142.307,361.786,172.457,364.7Zm-8.6-111.8a15.7,15.7,0,0,1-3.18,11.454c-3.559,4.478-8.352,6.128-13.934,5.8v17.276a12.06,12.06,0,0,1,1.691.013c1.414.212,2.174-.342,2.946-1.609a31.527,31.527,0,0,1,19.83-14.668c1.089-.276,1.373-.7,1.367-1.791-.048-9.218-.028-18.436-.028-27.654V240.21c-20.376,2.69-35.871,12.635-47.1,29.951h2.584a79.775,79.775,0,0,1,8.086.072,42.211,42.211,0,0,1,6.233,1.573c0-1.3-.08-2.836.014-4.357A14.9,14.9,0,0,1,150.7,254.5C154.86,252.278,159.353,253.01,163.853,252.9ZM116.8,296.063c1.311,0,2.519-.05,3.719.018a1.407,1.407,0,0,0,1.546-.947c1.056-2.231,2.222-4.41,3.267-6.646a1.608,1.608,0,0,1,1.728-1.084c4.584.054,9.168.025,13.752.025h1.412V283.11c-2.213,0-4.323.027-6.432-.005a10.722,10.722,0,0,1-10.525-8.879c-.17-.92-.215-1.864-.349-3.081A62.108,62.108,0,0,0,116.8,296.063Zm31.665-4.316c-6.484,0-12.851-.008-19.219.023a1.266,1.266,0,0,0-.931.53c-.653,1.16-1.214,2.371-1.783,3.51.115.138.14.2.166.2,6.638.021,13.277.046,19.915.029a1.1,1.1,0,0,0,.8-.623C147.806,294.273,148.092,293.1,148.468,291.747Zm-1.5-25.984c6.267.518,11.569-3.166,12.267-8.454C153.25,256.606,147.966,260.214,146.973,265.763Zm-5.044,13.015c-.911-2.183-2.295-3.687-4.4-3.994-2.482-.362-5.028-.292-7.633-.413a6.048,6.048,0,0,0,5.461,4.388C137.458,278.851,139.566,278.778,141.929,278.778Z" fill="#00a990"/>
    <path id="Path_459" data-name="Path 459" d="M289.229,402.089a10.787,10.787,0,1,1-10.8-10.812A10.82,10.82,0,0,1,289.229,402.089Zm-10.783,6.449A6.471,6.471,0,1,0,271.973,402,6.5,6.5,0,0,0,278.446,408.537Z" transform="translate(-99.423 -99.527)" fill="#00a990"/>
    <path id="Path_460" data-name="Path 460" d="M256.13,376.845l-2.8,2.831-5.964-5.966,2.826-2.833Z" transform="translate(-86.443 -86.478)" fill="#00a990"/>
    <path id="Path_461" data-name="Path 461" d="M326.507,379.688l-2.6-2.8,5.9-5.87,2.6,2.755Z" transform="translate(-135.402 -86.568)" fill="#00a990"/>
    <path id="Path_462" data-name="Path 462" d="M253.265,447.091l2.776,2.785-6,6.009-2.755-2.819Z" transform="translate(-86.393 -135.229)" fill="#00a990"/>
    <path id="Path_463" data-name="Path 463" d="M323.48,449.958l2.768-2.8,6.017,6.012-2.8,2.79Z" transform="translate(-135.131 -135.274)" fill="#00a990"/>
    <path id="Path_464" data-name="Path 464" d="M295.979,355.605v8.455h-4.2v-8.455Z" transform="translate(-114.854 -76.709)" fill="#002c2d"/>
    <path id="Path_465" data-name="Path 465" d="M231.791,419.647V415.51H240.3v4.137Z" transform="translate(-76.481 -115.028)" fill="#002c2d"/>
    <path id="Path_466" data-name="Path 466" d="M339.7,419.644V415.5h8.48v4.144Z" transform="translate(-145.505 -115.021)" fill="#002c2d"/>
    <path id="Path_467" data-name="Path 467" d="M295.979,463.432v8.455h-4.2v-8.455Z" transform="translate(-114.854 -145.682)" fill="#002c2d"/>
    <path id="Path_468" data-name="Path 468" d="M351.662,511.988V507.7h20.355c.314,0,.629.009.943,0a2.213,2.213,0,0,0,2.361-1.931,2.136,2.136,0,0,0-1.648-2.31,2.1,2.1,0,0,0-2.543,1.464c-.066.166-.116.338-.193.564h-4.105a6.272,6.272,0,0,1,5.281-6.335,6.534,6.534,0,0,1,7.252,4.477c1.192,3.888-1.47,8.194-5.524,8.305C366.492,512.133,359.132,511.988,351.662,511.988Z" transform="translate(-153.158 -168.466)" fill="#002c2d"/>
    <path id="Path_469" data-name="Path 469" d="M402.632,457.582h-4.151a6.412,6.412,0,0,1,6.349-6.4,6.5,6.5,0,0,1,6.531,6.206,6.4,6.4,0,0,1-6.138,6.706c-5.789.093-11.581.025-17.482.025v-4.307h1.377q7.408,0,14.815,0a7.226,7.226,0,0,0,1.21-.031,2.057,2.057,0,0,0,1.88-1.973,2.129,2.129,0,0,0-4.042-1.082A8.819,8.819,0,0,0,402.632,457.582Z" transform="translate(-176.236 -137.845)" fill="#00a990"/>
    <path id="Path_470" data-name="Path 470" d="M327.7,527.468v-4.151h4.174v4.151Z" transform="translate(-137.832 -183.988)" fill="#002c2d"/>
    <path id="Path_471" data-name="Path 471" d="M374.242,291.656c3.225,4.135,6.461,7.989,9.317,12.108a9.877,9.877,0,0,1,1.367,5.23,10.029,10.029,0,0,1-9.6,9.917c-3.375.171-6.429-.5-8.908-2.971a9.937,9.937,0,0,1-1.147-12.946C368.078,299.208,371.114,295.59,374.242,291.656Zm-.023,6.924c-1.976,2.52-3.882,4.828-5.64,7.244a4.983,4.983,0,0,0-.68,4.254c.884,3.559,4.463,5.385,8.442,4.3a5.669,5.669,0,0,0,3.536-8.435C378.251,303.4,376.2,301.128,374.219,298.58Z" transform="translate(-160.658 -35.803)" fill="#002c2d"/>
    <path id="Path_472" data-name="Path 472" d="M190.211,481.3c4.01-.588,5.858.5,8.072,4.623a33.342,33.342,0,0,1,3.434-.469c1.157-.045,2.322.124,3.741.215-.759,2.759,1.1,4.385,2.384,6.306,4.7,7.01.711,15.538-7.858,16.948a17.273,17.273,0,0,1-8.387-.548c-6.668-2.217-9.481-8.183-6.821-14.7a36.411,36.411,0,0,1,2.717-4.945C188.9,486.408,190.863,484.319,190.211,481.3Zm3.906,5.655-.4.048c-1.214,1.881-2.473,3.735-3.625,5.653a16.434,16.434,0,0,0-1.549,3.269c-1.253,3.8.207,6.765,3.949,8.169a12.49,12.49,0,0,0,8.063.252,6.451,6.451,0,0,0,3.5-10.3c-.984-1.375-1.952-2.761-3-4.239a2.155,2.155,0,0,0-2.248,2.05h-4.069Z" transform="translate(-45.772 -157.016)" fill="#002c2d"/>
  </g>
</svg>
