<svg xmlns="http://www.w3.org/2000/svg" width="36.667" height="36.667" viewBox="0 0 36.667 36.667">
  <path id="Icon_material-picture-as-pdf" data-name="Icon material-picture-as-pdf" d="M36,3H14a3.677,3.677,0,0,0-3.667,3.667v22A3.677,3.677,0,0,0,14,32.334H36a3.677,3.677,0,0,0,3.667-3.667v-22A3.677,3.677,0,0,0,36,3ZM20.417,16.75a2.746,2.746,0,0,1-2.75,2.75H15.833v3.667h-2.75v-11h4.583a2.746,2.746,0,0,1,2.75,2.75Zm9.167,3.667a2.746,2.746,0,0,1-2.75,2.75H22.25v-11h4.583a2.746,2.746,0,0,1,2.75,2.75Zm7.333-5.5h-2.75V16.75h2.75V19.5h-2.75v3.667h-2.75v-11h5.5ZM15.833,16.75h1.833V14.917H15.833ZM6.667,10.333H3V36a3.677,3.677,0,0,0,3.667,3.667H32.334V36H6.667ZM25,20.417h1.833v-5.5H25Z" transform="translate(-3 -3)" fill="#fff"/>
</svg>
