<svg id="pie-chart" xmlns="http://www.w3.org/2000/svg" width="123.086" height="123.125" viewBox="0 0 123.086 123.125">
  <g id="Group_33" data-name="Group 33" transform="translate(0 28.729)">
    <g id="Group_32" data-name="Group 32">
      <path id="Path_294" data-name="Path 294" d="M80.609,189.672,49.288,158.349v-44.3A2.052,2.052,0,0,0,47.236,112,47.115,47.115,0,0,0,11,129l-2.754-3.363V112h-4.1v14.365a2.052,2.052,0,0,0,.464,1.3l3.846,4.691a47.186,47.186,0,0,0,72.158,60.219A2.052,2.052,0,0,0,80.609,189.672Zm-33.373,12.62a43.071,43.071,0,0,1-36.082-66.627l11.921,14.57,3.177-2.6-12.6-15.391a43.048,43.048,0,0,1,31.53-16.095V159.2a2.052,2.052,0,0,0,.6,1.451l30.437,30.439A42.785,42.785,0,0,1,47.236,202.292Z" transform="translate(-0.077 -112)" fill="#00a990"/>
    </g>
  </g>
  <g id="Group_35" data-name="Group 35" transform="translate(53.315 0)">
    <g id="Group_34" data-name="Group 34">
      <path id="Path_295" data-name="Path 295" d="M253.07,4.1V0H236.653a2.052,2.052,0,0,0-1.847,1.135l-8.141,16.308a47.165,47.165,0,0,0-16.69-3.078,2.052,2.052,0,0,0-2.052,2.052V61.563a2.052,2.052,0,0,0,1.266,1.9,2.026,2.026,0,0,0,.786.156,2.052,2.052,0,0,0,1.451-.6l31.922-31.924a2.052,2.052,0,0,0,0-2.9,47.252,47.252,0,0,0-12.908-9.122L237.921,4.1ZM238.952,29.673,212.028,56.609V18.516a42.963,42.963,0,0,1,12.795,2.608l-4.381,8.74,3.673,1.835,4.488-8.976A42.953,42.953,0,0,1,238.952,29.673Z" transform="translate(-207.924 0)" fill="#00a990"/>
    </g>
  </g>
  <g id="Group_37" data-name="Group 37" transform="translate(100.513 110.813)">
    <g id="Group_36" data-name="Group 36">
      <rect id="Rectangle_33" data-name="Rectangle 33" width="22.573" height="4.104" fill="#002c2d"/>
    </g>
  </g>
  <g id="Group_39" data-name="Group 39" transform="translate(100.513 119.021)">
    <g id="Group_38" data-name="Group 38">
      <rect id="Rectangle_34" data-name="Rectangle 34" width="22.573" height="4.104" fill="#002c2d"/>
    </g>
  </g>
  <g id="Group_41" data-name="Group 41" transform="translate(55.368 38.762)">
    <g id="Group_40" data-name="Group 40">
      <path id="Path_296" data-name="Path 296" d="M271.935,194.525l-7.355-2.257a47.834,47.834,0,0,0,.6-7.182,46.878,46.878,0,0,0-13.825-33.371,2.052,2.052,0,0,0-2.9,0l-31.922,31.918a2.052,2.052,0,0,0,0,2.9l31.922,31.924a2.052,2.052,0,0,0,2.9,0,46.843,46.843,0,0,0,12.432-22.148l5.5,1.691v19.006h4.1V196.487A2.053,2.053,0,0,0,271.935,194.525Zm-11.315-3.491-15.362-4.72-1.207,3.924,15.8,4.863a42.7,42.7,0,0,1-9.985,18.97l-28.988-28.988L249.867,156.1a42.778,42.778,0,0,1,11.2,28.986A43.836,43.836,0,0,1,260.62,191.035Z" transform="translate(-215.926 -151.114)" fill="#00a990"/>
    </g>
  </g>
  <g id="Group_43" data-name="Group 43" transform="translate(2.013 2.052)">
    <g id="Group_42" data-name="Group 42">
      <rect id="Rectangle_35" data-name="Rectangle 35" width="26.677" height="4.104" fill="#002c2d"/>
    </g>
  </g>
  <g id="Group_45" data-name="Group 45" transform="translate(2.013 10.26)">
    <g id="Group_44" data-name="Group 44">
      <rect id="Rectangle_36" data-name="Rectangle 36" width="26.677" height="4.104" fill="#002c2d"/>
    </g>
  </g>
  <g id="Group_47" data-name="Group 47" transform="translate(2.013 18.469)">
    <g id="Group_46" data-name="Group 46">
      <rect id="Rectangle_37" data-name="Rectangle 37" width="14.365" height="4.104" fill="#002c2d"/>
    </g>
  </g>
  <g id="Group_49" data-name="Group 49" transform="translate(104.617 0)">
    <g id="Group_48" data-name="Group 48">
      <rect id="Rectangle_38" data-name="Rectangle 38" width="18.469" height="4.104" fill="#002c2d"/>
    </g>
  </g>
  <g id="Group_51" data-name="Group 51" transform="translate(104.617 8.208)">
    <g id="Group_50" data-name="Group 50">
      <rect id="Rectangle_39" data-name="Rectangle 39" width="18.469" height="4.104" fill="#002c2d"/>
    </g>
  </g>
  <g id="Group_53" data-name="Group 53" transform="translate(104.617 16.417)">
    <g id="Group_52" data-name="Group 52">
      <rect id="Rectangle_40" data-name="Rectangle 40" width="10.26" height="4.104" fill="#002c2d"/>
    </g>
  </g>
</svg>
