<svg id="puzzle" xmlns="http://www.w3.org/2000/svg" width="123.125" height="123.125" viewBox="0 0 123.125 123.125">
  <g id="Group_113" data-name="Group 113" transform="translate(0 20.521)">
    <g id="Group_112" data-name="Group 112">
      <path id="Path_324" data-name="Path 324" d="M84.751,129.25A2.052,2.052,0,0,0,82.7,131.3a9.1,9.1,0,1,1-18.2,0v0a2.052,2.052,0,0,0-2.052-2.052H53.354v-7.416a13.421,13.421,0,0,0,0-26.523V82.052A2.052,2.052,0,0,0,51.3,80H2.052A2.052,2.052,0,0,0,0,82.052v98.5A2.052,2.052,0,0,0,2.052,182.6h98.5a2.052,2.052,0,0,0,2.052-2.052v-51.3ZM4.1,84.1H49.25v13.1A2.052,2.052,0,0,0,51.3,99.259a9.314,9.314,0,0,1,0,18.627,2.052,2.052,0,0,0-2.052,2.052v9.312H41.834a13.421,13.421,0,0,0-26.523,0H4.1ZM49.25,178.5H4.1V133.354h13.1a2.052,2.052,0,0,0,2.052-2.052,9.317,9.317,0,0,1,18.627,0,2.052,2.052,0,0,0,2.052,2.052H49.25v7.2a13.174,13.174,0,0,0,0,26.1Zm49.25,0H53.354V164.751A2.052,2.052,0,0,0,51.3,162.7a9.1,9.1,0,0,1,0-18.2,2.052,2.052,0,0,0,2.052-2.052v-9.095h7.2a13.205,13.205,0,0,0,26.09,0H98.5Z" transform="translate(0 -80)" fill="#00a990"/>
    </g>
  </g>
  <g id="Group_115" data-name="Group 115" transform="translate(69.771)">
    <g id="Group_114" data-name="Group 114">
      <path id="Path_325" data-name="Path 325" d="M323.3,0h-49.25A2.052,2.052,0,0,0,272,2.052V17.207a2.052,2.052,0,0,0,2.052,2.052,9.317,9.317,0,0,1,0,18.627A2.052,2.052,0,0,0,272,39.938V51.3a2.052,2.052,0,0,0,2.052,2.052H283.3a13.174,13.174,0,0,0,26.1,0h13.9a2.052,2.052,0,0,0,2.052-2.052V2.052A2.052,2.052,0,0,0,323.3,0ZM321.25,49.25H307.5a2.052,2.052,0,0,0-2.052,2.052,9.1,9.1,0,0,1-18.2.386q0-.193,0-.387A2.052,2.052,0,0,0,285.2,49.25H276.1V41.828a13.454,13.454,0,0,0,0-26.511V4.1H321.25Z" transform="translate(-272)" fill="#00a990"/>
    </g>
  </g>
  <g id="Group_117" data-name="Group 117" transform="translate(10.26 28.729)">
    <g id="Group_116" data-name="Group 116">
      <rect id="Rectangle_43" data-name="Rectangle 43" width="16.417" height="4.104" fill="#002c2d"/>
    </g>
  </g>
  <g id="Group_119" data-name="Group 119" transform="translate(10.26 36.938)">
    <g id="Group_118" data-name="Group 118">
      <rect id="Rectangle_44" data-name="Rectangle 44" width="16.417" height="4.104" fill="#002c2d"/>
    </g>
  </g>
  <g id="Group_121" data-name="Group 121" transform="translate(10.26 45.146)">
    <g id="Group_120" data-name="Group 120">
      <rect id="Rectangle_45" data-name="Rectangle 45" width="8.208" height="4.104" fill="#002c2d"/>
    </g>
  </g>
  <g id="Group_123" data-name="Group 123" transform="translate(65.667 92.344)">
    <g id="Group_122" data-name="Group 122">
      <rect id="Rectangle_46" data-name="Rectangle 46" width="18.469" height="4.104" fill="#002c2d"/>
    </g>
  </g>
  <g id="Group_125" data-name="Group 125" transform="translate(65.667 100.553)">
    <g id="Group_124" data-name="Group 124">
      <rect id="Rectangle_47" data-name="Rectangle 47" width="18.469" height="4.104" fill="#002c2d"/>
    </g>
  </g>
  <g id="Group_127" data-name="Group 127" transform="translate(65.667 108.761)">
    <g id="Group_126" data-name="Group 126">
      <rect id="Rectangle_48" data-name="Rectangle 48" width="10.26" height="4.104" fill="#002c2d"/>
    </g>
  </g>
</svg>
